<svg version="1.2" baseProfile="tiny-ps" xmlns="http://www.w3.org/2000/svg" viewBox="0 0 400 400" width="400" height="400"><path fill="#000000" aria-label="壱"  d="M31.25 85.94L31.25 56.25L184.38 56.25L184.38 26.56L215.63 26.56L215.63 56.25L367.19 56.25L367.19 85.94L215.63 85.94L215.63 121.88L348.44 121.88L348.44 151.56L53.13 151.56L53.13 121.88L184.38 121.88L184.38 85.94L31.25 85.94ZM31.25 175L367.19 175L367.19 246.88L335.94 246.88L335.94 204.69L62.5 204.69L62.5 248.44L31.25 248.44L31.25 175ZM98.44 346.88L98.44 232.81L129.69 232.81L129.69 276.56Q228.13 264.06 310.94 240.63L325 268.75Q237.5 292.19 129.69 307.81L129.69 335.94Q129.69 345.31 140.63 350Q153.13 353.13 214.06 353.13L282.81 351.56Q315.63 350 320.31 339.06Q325 326.56 328.13 300L357.81 312.5Q348.44 367.19 328.13 375Q309.38 382.81 189.06 382.81Q132.81 382.81 115.63 375Q98.44 365.63 98.44 346.88Z" /></svg>